<svg width="174" height="111" viewBox="0 0 174 111" fill="none" xmlns="http://www.w3.org/2000/svg">
<rect x="96.8394" y="5.70711" width="73.726" height="73.726" transform="rotate(45 96.8394 5.70711)" stroke="#8F9EB1"/>
<line x1="96.5" y1="6" x2="96.5" y2="110" stroke="#8F9EB1"/>
<line x1="44.9999" y1="57.5" x2="149" y2="57.5" stroke="#8F9EB1"/>
<path d="M69.9998 83.5L122.5 31" stroke="#8F9EB1"/>
<path d="M123.5 84.5L70.9998 32" stroke="#8F9EB1"/>
<path d="M96.5 6L111 43L149 58" stroke="#8F9EB1"/>
<path d="M44.9999 57.5L81.9999 43L96.4999 6" stroke="#8F9EB1"/>
<path d="M96.5 110L82 73L45 58" stroke="#8F9EB1"/>
<path d="M149 57.5L112 72L97.5 109" stroke="#8F9EB1"/>
<rect x="81.5" y="42.5" width="30" height="30" stroke="#8F9EB1"/>
<path d="M1.06641 63.5625H2.02344V64.8955C2.40625 64.3851 2.83008 64.0045 3.29492 63.7539C3.75977 63.4987 4.26562 63.3711 4.8125 63.3711C5.36849 63.3711 5.86068 63.5124 6.28906 63.7949C6.72201 64.0775 7.04102 64.458 7.24609 64.9365C7.45117 65.415 7.55371 66.1601 7.55371 67.1719V71H6.60352V67.4521C6.60352 66.5954 6.56706 66.0234 6.49414 65.7363C6.38021 65.2441 6.16602 64.875 5.85156 64.6289C5.53711 64.3782 5.12695 64.2529 4.62109 64.2529C4.04232 64.2529 3.52279 64.4443 3.0625 64.8271C2.60677 65.2099 2.30599 65.6839 2.16016 66.249C2.06901 66.6181 2.02344 67.2926 2.02344 68.2724V71H1.06641V63.5625ZM15.873 68.5322L16.6797 68.956C16.4154 69.4756 16.11 69.8948 15.7637 70.2139C15.4173 70.5329 15.0277 70.7767 14.5947 70.9453C14.1618 71.1094 13.6719 71.1914 13.125 71.1914C11.9128 71.1914 10.9648 70.7949 10.2812 70.0019C9.59766 69.2044 9.25586 68.3043 9.25586 67.3017C9.25586 66.3584 9.54525 65.5176 10.124 64.7793C10.8577 63.8405 11.8398 63.3711 13.0703 63.3711C14.3372 63.3711 15.349 63.8519 16.1055 64.8135C16.6432 65.4925 16.9167 66.3402 16.9258 67.3564H10.2402C10.2585 68.2223 10.5342 68.9333 11.0674 69.4892C11.6006 70.0407 12.2591 70.3164 13.043 70.3164C13.4212 70.3164 13.7881 70.2503 14.1436 70.1181C14.5036 69.986 14.8089 69.8105 15.0596 69.5918C15.3102 69.373 15.5814 69.0198 15.873 68.5322ZM15.873 66.5293C15.7454 66.0189 15.5586 65.611 15.3125 65.3056C15.071 65.0003 14.7497 64.7542 14.3486 64.5674C13.9476 64.3805 13.526 64.2871 13.084 64.2871C12.3548 64.2871 11.7282 64.5218 11.2041 64.9912C10.8213 65.333 10.5319 65.8457 10.3359 66.5293H15.873ZM17.7119 63.5625H18.6963L20.9727 68.9629L23.3584 63.5625H23.5293L25.9082 68.9629L28.2256 63.5625H29.2236L25.9971 71H25.8125L23.4473 65.6748L21.0615 71H20.8838L17.7119 63.5625ZM29.7295 66.8027H33.4893V67.6367H29.7295V66.8027ZM4.58691 79.3711C5.73079 79.3711 6.67871 79.7858 7.43066 80.6152C8.11426 81.3717 8.45605 82.2672 8.45605 83.3017C8.45605 84.3408 8.09375 85.25 7.36914 86.0293C6.64909 86.804 5.72168 87.1914 4.58691 87.1914C3.44759 87.1914 2.51562 86.804 1.79102 86.0293C1.07096 85.25 0.710938 84.3408 0.710938 83.3017C0.710938 82.2718 1.05273 81.3786 1.73633 80.6221C2.48828 79.7881 3.43848 79.3711 4.58691 79.3711ZM4.58691 80.3076C3.79395 80.3076 3.11263 80.6015 2.54297 81.1894C1.97331 81.7773 1.68848 82.4883 1.68848 83.3223C1.68848 83.86 1.81836 84.3613 2.07812 84.8262C2.33789 85.291 2.6888 85.651 3.13086 85.9062C3.57292 86.1569 4.05827 86.2822 4.58691 86.2822C5.11556 86.2822 5.60091 86.1569 6.04297 85.9062C6.48503 85.651 6.83594 85.291 7.0957 84.8262C7.35547 84.3613 7.48535 83.86 7.48535 83.3223C7.48535 82.4883 7.19824 81.7773 6.62402 81.1894C6.05436 80.6015 5.37533 80.3076 4.58691 80.3076ZM9.87793 79.5625H10.8555V80.6494C11.1471 80.221 11.4548 79.902 11.7783 79.6924C12.1019 79.4782 12.4391 79.3711 12.79 79.3711C13.0544 79.3711 13.3369 79.4554 13.6377 79.624L13.1387 80.4306C12.9382 80.3441 12.7695 80.3008 12.6328 80.3008C12.3138 80.3008 12.0062 80.4329 11.71 80.6973C11.4137 80.957 11.1882 81.3626 11.0332 81.914C10.9147 82.3379 10.8555 83.1946 10.8555 84.4844V87H9.87793V79.5625ZM14.7861 76.5C15.0049 76.5 15.1917 76.5775 15.3467 76.7324C15.5016 76.8874 15.5791 77.0742 15.5791 77.293C15.5791 77.5071 15.5016 77.6917 15.3467 77.8467C15.1917 78.0016 15.0049 78.0791 14.7861 78.0791C14.5719 78.0791 14.3874 78.0016 14.2324 77.8467C14.0775 77.6917 14 77.5071 14 77.293C14 77.0742 14.0775 76.8874 14.2324 76.7324C14.3874 76.5775 14.5719 76.5 14.7861 76.5ZM14.3076 79.5625H15.2715V87H14.3076V79.5625ZM23.6592 79.5625H24.623V85.4892C24.623 86.5329 24.5319 87.2962 24.3496 87.7793C24.099 88.4629 23.6637 88.9892 23.0439 89.3584C22.4242 89.7275 21.679 89.9121 20.8086 89.9121C20.1706 89.9121 19.5964 89.8209 19.0859 89.6387C18.5801 89.4609 18.1676 89.2194 17.8486 88.914C17.5296 88.6133 17.2357 88.1712 16.9668 87.5879H18.0059C18.2884 88.0801 18.653 88.4446 19.0996 88.6816C19.5462 88.9186 20.0999 89.0371 20.7607 89.0371C21.4124 89.0371 21.9616 88.914 22.4082 88.668C22.8594 88.4264 23.1807 88.1211 23.3721 87.7519C23.5635 87.3828 23.6592 86.7881 23.6592 85.9678V85.5849C23.2992 86.0407 22.8594 86.3916 22.3398 86.6377C21.8203 86.8792 21.2689 87 20.6855 87C20.002 87 19.3594 86.8314 18.7578 86.4941C18.1562 86.1523 17.6914 85.6943 17.3633 85.1201C17.0352 84.5459 16.8711 83.9147 16.8711 83.2265C16.8711 82.5384 17.042 81.8981 17.3838 81.3056C17.7256 80.7086 18.1973 80.237 18.7988 79.8906C19.4049 79.5443 20.043 79.3711 20.7129 79.3711C21.2689 79.3711 21.7861 79.4873 22.2646 79.7197C22.7477 79.9476 23.2126 80.3258 23.6592 80.8545V79.5625ZM20.8359 80.2939C20.2936 80.2939 19.79 80.4261 19.3252 80.6904C18.8604 80.9502 18.4958 81.3125 18.2314 81.7773C17.9671 82.2376 17.835 82.7366 17.835 83.2744C17.835 84.0902 18.1084 84.7646 18.6553 85.2978C19.2021 85.831 19.9108 86.0976 20.7812 86.0976C21.6608 86.0976 22.3672 85.8333 22.9004 85.3047C23.4382 84.776 23.707 84.081 23.707 83.2197C23.707 82.6592 23.584 82.1601 23.3379 81.7226C23.0918 81.2806 22.7432 80.932 22.292 80.6767C21.8408 80.4215 21.3555 80.2939 20.8359 80.2939ZM34.084 79.5625V87H33.1406V85.7217C32.7396 86.2093 32.2884 86.5762 31.7871 86.8223C31.2904 87.0683 30.7458 87.1914 30.1533 87.1914C29.1006 87.1914 28.2005 86.8109 27.4531 86.0498C26.7103 85.2842 26.3389 84.3545 26.3389 83.2607C26.3389 82.1898 26.7148 81.2737 27.4668 80.5127C28.2188 79.7516 29.1234 79.3711 30.1807 79.3711C30.7913 79.3711 31.3428 79.501 31.835 79.7607C32.3317 80.0205 32.7669 80.4101 33.1406 80.9297V79.5625H34.084ZM30.2559 80.2939C29.7227 80.2939 29.2305 80.4261 28.7793 80.6904C28.3281 80.9502 27.9681 81.317 27.6992 81.791C27.4349 82.265 27.3027 82.7663 27.3027 83.2949C27.3027 83.819 27.4372 84.3203 27.7061 84.7988C27.9749 85.2773 28.335 85.651 28.7861 85.9199C29.2419 86.1842 29.7295 86.3164 30.249 86.3164C30.7731 86.3164 31.2699 86.1842 31.7393 85.9199C32.2087 85.6556 32.5687 85.2978 32.8193 84.8467C33.0745 84.3955 33.2021 83.8874 33.2021 83.3223C33.2021 82.4609 32.9173 81.7409 32.3477 81.1621C31.7826 80.5833 31.0853 80.2939 30.2559 80.2939ZM36.2373 79.5625H37.1875V80.8476C37.5202 80.3737 37.862 80.0273 38.2129 79.8086C38.696 79.5169 39.2041 79.3711 39.7373 79.3711C40.0973 79.3711 40.4391 79.4417 40.7627 79.583C41.0863 79.7243 41.3506 79.9134 41.5557 80.1504C41.7607 80.3828 41.9385 80.7178 42.0889 81.1553C42.4079 80.5719 42.8066 80.1299 43.2852 79.8291C43.7637 79.5237 44.2786 79.3711 44.8301 79.3711C45.3451 79.3711 45.7985 79.501 46.1904 79.7607C46.5869 80.0205 46.8809 80.3828 47.0723 80.8476C47.2637 81.3125 47.3594 82.0098 47.3594 82.9394V87H46.3818V82.9394C46.3818 82.1419 46.3249 81.595 46.2109 81.2988C46.097 80.998 45.901 80.7565 45.623 80.5742C45.3496 80.3919 45.0215 80.3008 44.6387 80.3008C44.1738 80.3008 43.7477 80.4375 43.3604 80.7109C42.9775 80.9844 42.6973 81.3489 42.5195 81.8047C42.3418 82.2604 42.2529 83.0215 42.2529 84.0879V87H41.3027V83.1924C41.3027 82.2946 41.2458 81.6862 41.1318 81.3672C41.0225 81.0436 40.8288 80.7861 40.5508 80.5947C40.2728 80.3987 39.9424 80.3008 39.5596 80.3008C39.1175 80.3008 38.7028 80.4352 38.3154 80.7041C37.9326 80.9684 37.6478 81.3262 37.4609 81.7773C37.2786 82.2285 37.1875 82.9189 37.1875 83.8486V87H36.2373V79.5625ZM49.7178 76.5C49.9365 76.5 50.1234 76.5775 50.2783 76.7324C50.4333 76.8874 50.5107 77.0742 50.5107 77.293C50.5107 77.5071 50.4333 77.6917 50.2783 77.8467C50.1234 78.0016 49.9365 78.0791 49.7178 78.0791C49.5036 78.0791 49.319 78.0016 49.1641 77.8467C49.0091 77.6917 48.9316 77.5071 48.9316 77.293C48.9316 77.0742 49.0091 76.8874 49.1641 76.7324C49.319 76.5775 49.5036 76.5 49.7178 76.5ZM49.2393 79.5625H50.2031V87H49.2393V79.5625ZM51.5635 82.8027H55.3232V83.6367H51.5635V82.8027ZM7.32812 100.532L8.13477 100.956C7.87044 101.476 7.5651 101.895 7.21875 102.214C6.8724 102.533 6.48275 102.777 6.0498 102.945C5.61686 103.109 5.12695 103.191 4.58008 103.191C3.36784 103.191 2.41992 102.795 1.73633 102.002C1.05273 101.204 0.710938 100.304 0.710938 99.3017C0.710938 98.3584 1.00033 97.5176 1.5791 96.7793C2.31283 95.8405 3.29492 95.3711 4.52539 95.3711C5.79232 95.3711 6.80404 95.8519 7.56055 96.8135C8.09831 97.4925 8.37174 98.3402 8.38086 99.3564H1.69531C1.71354 100.222 1.98926 100.933 2.52246 101.489C3.05566 102.041 3.71419 102.316 4.49805 102.316C4.8763 102.316 5.24316 102.25 5.59863 102.118C5.95866 101.986 6.264 101.811 6.51465 101.592C6.7653 101.373 7.03646 101.02 7.32812 100.532ZM7.32812 98.5293C7.20052 98.0189 7.01367 97.611 6.76758 97.3056C6.52604 97.0003 6.20475 96.7542 5.80371 96.5674C5.40267 96.3805 4.98112 96.2871 4.53906 96.2871C3.8099 96.2871 3.18327 96.5218 2.65918 96.9912C2.27637 97.333 1.98698 97.8457 1.79102 98.5293H7.32812ZM9.32422 95.5625H10.4727L12.4414 98.3174L14.4102 95.5625H15.5586L13.0156 99.0967L15.8799 103H14.7178L12.4414 99.876L10.1992 103H9.05762L11.874 99.0967L9.32422 95.5625ZM16.9121 95.5625H17.8623V96.9297C18.2406 96.4101 18.6758 96.0205 19.168 95.7607C19.6602 95.501 20.2093 95.3711 20.8154 95.3711C21.8727 95.3711 22.7773 95.7516 23.5293 96.5127C24.2812 97.2737 24.6572 98.1898 24.6572 99.2607C24.6572 100.354 24.2835 101.284 23.5361 102.05C22.7933 102.811 21.8955 103.191 20.8428 103.191C20.2503 103.191 19.7057 103.068 19.209 102.822C18.7122 102.576 18.2633 102.209 17.8623 101.722V105.721H16.9121V95.5625ZM20.7402 96.2939C19.9108 96.2939 19.2113 96.5833 18.6416 97.1621C18.0765 97.7409 17.7939 98.4609 17.7939 99.3223C17.7939 99.8874 17.9193 100.395 18.1699 100.847C18.4251 101.298 18.7874 101.656 19.2568 101.92C19.7308 102.184 20.2298 102.316 20.7539 102.316C21.2689 102.316 21.752 102.184 22.2031 101.92C22.6589 101.651 23.0212 101.277 23.29 100.799C23.5589 100.32 23.6934 99.819 23.6934 99.2949C23.6934 98.7663 23.5589 98.265 23.29 97.791C23.0257 97.317 22.668 96.9502 22.2168 96.6904C21.7656 96.4261 21.2734 96.2939 20.7402 96.2939ZM29.9756 95.3711C31.1195 95.3711 32.0674 95.7858 32.8193 96.6152C33.5029 97.3717 33.8447 98.2672 33.8447 99.3017C33.8447 100.341 33.4824 101.25 32.7578 102.029C32.0378 102.804 31.1104 103.191 29.9756 103.191C28.8363 103.191 27.9043 102.804 27.1797 102.029C26.4596 101.25 26.0996 100.341 26.0996 99.3017C26.0996 98.2718 26.4414 97.3786 27.125 96.6221C27.877 95.7881 28.8271 95.3711 29.9756 95.3711ZM29.9756 96.3076C29.1826 96.3076 28.5013 96.6015 27.9316 97.1894C27.362 97.7773 27.0771 98.4883 27.0771 99.3223C27.0771 99.86 27.207 100.361 27.4668 100.826C27.7266 101.291 28.0775 101.651 28.5195 101.906C28.9616 102.157 29.4469 102.282 29.9756 102.282C30.5042 102.282 30.9896 102.157 31.4316 101.906C31.8737 101.651 32.2246 101.291 32.4844 100.826C32.7441 100.361 32.874 99.86 32.874 99.3223C32.874 98.4883 32.5869 97.7773 32.0127 97.1894C31.443 96.6015 30.764 96.3076 29.9756 96.3076Z" fill="#4E7BEE"/>
<path d="M148.355 94.2734L143.316 94.3516C143.16 94.3516 143.082 94.2604 143.082 94.0781V92.8672C143.082 92.6849 143.16 92.5938 143.316 92.5938L148.961 92.6719H150.562V87.5547L144.996 87.6328C144.814 87.6328 144.723 87.5417 144.723 87.3594V86.1875C144.723 86.0052 144.814 85.9141 144.996 85.9141L150.562 85.9922V85.6406C150.562 84.1172 150.484 82.9388 150.328 82.1055C151.109 82.1576 151.721 82.2422 152.164 82.3594C152.451 82.4375 152.594 82.5417 152.594 82.6719C152.594 82.737 152.542 82.9258 152.438 83.2383C152.281 83.6289 152.203 84.3971 152.203 85.543V85.9922H159.566V85.6016C159.566 83.9089 159.488 82.7305 159.332 82.0664C160.087 82.1055 160.712 82.1901 161.207 82.3203C161.493 82.3594 161.637 82.4635 161.637 82.6328C161.637 82.75 161.572 82.9648 161.441 83.2773C161.311 83.668 161.246 84.4102 161.246 85.5039V85.9922H162.008L167.496 85.9141C167.678 85.9141 167.77 86.0052 167.77 86.1875V87.3594C167.77 87.5417 167.678 87.6328 167.496 87.6328L162.008 87.5547H161.246V92.6719H165.016L170.719 92.5938C170.914 92.5938 171.012 92.6849 171.012 92.8672V94.0781C171.012 94.2604 170.914 94.3516 170.719 94.3516L165.016 94.2734H156.48C157.822 96.474 159.182 98.2188 160.562 99.5078C162.021 98.4792 163.29 97.3984 164.371 96.2656C164.762 95.849 165.081 95.4128 165.328 94.957C165.888 95.2956 166.344 95.6146 166.695 95.9141C166.93 96.1094 167.047 96.2721 167.047 96.4023C167.047 96.5456 166.917 96.6628 166.656 96.7539C166.266 96.8971 165.836 97.1901 165.367 97.6328C164.26 98.6615 163.062 99.625 161.773 100.523C164.365 102.516 167.737 103.902 171.891 104.684C171.578 104.983 171.337 105.354 171.168 105.797C171.012 106.201 170.849 106.402 170.68 106.402C170.589 106.402 170.432 106.37 170.211 106.305C166.318 105.25 163.115 103.714 160.602 101.695C158.284 99.8203 156.311 97.3464 154.684 94.2734H150.074V103.199C153.056 102.626 155.549 102.04 157.555 101.441C157.451 101.923 157.398 102.255 157.398 102.438C157.398 102.789 157.359 103.004 157.281 103.082C157.229 103.134 157.06 103.199 156.773 103.277C153.401 104.189 149.592 105.029 145.348 105.797C144.658 105.927 144.221 106.064 144.039 106.207C143.818 106.363 143.655 106.441 143.551 106.441C143.395 106.441 143.264 106.318 143.16 106.07C142.952 105.536 142.763 104.938 142.594 104.273C143.544 104.234 144.586 104.13 145.719 103.961C145.862 103.935 146.122 103.889 146.5 103.824C147.281 103.694 147.9 103.59 148.355 103.512V94.2734ZM159.566 92.6719V87.5547H152.203V92.6719H159.566ZM142.438 80.9922V82.2227C142.438 87.0143 142.236 90.9531 141.832 94.0391C141.493 96.5 140.96 98.6549 140.23 100.504C139.592 102.092 138.688 103.779 137.516 105.562C137.346 105.836 137.223 105.973 137.145 105.973C137.079 105.973 136.949 105.862 136.754 105.641C136.402 105.237 136.018 104.97 135.602 104.84C138.023 101.533 139.501 97.7044 140.035 93.3555C140.413 90.6602 140.602 86.5391 140.602 80.9922L140.523 73.3164C140.523 73.1081 140.615 73.0039 140.797 73.0039L146.559 73.082H162.633L168.395 73.0039C168.577 73.0039 168.668 73.1081 168.668 73.3164L168.59 75.9141V78.1992L168.668 80.7969C168.668 80.9792 168.577 81.0703 168.395 81.0703L162.633 80.9922H142.438ZM142.438 79.3906H166.793V74.7227H142.438V79.3906Z" fill="#4E7BEE"/>
<path d="M12.3242 32.8047C12.3633 35.1615 12.4284 37.987 12.5195 41.2812C12.5716 43.3906 12.5977 44.7253 12.5977 45.2852C12.5977 45.4674 12.487 45.5586 12.2656 45.5586H10.918C10.7357 45.5586 10.6445 45.4674 10.6445 45.2852C10.6445 44.8815 10.6771 43.3255 10.7422 40.6172C10.8073 38 10.8529 35.513 10.8789 33.1562C9.32943 36.2943 6.90104 39.2174 3.59375 41.9258C3.34635 42.0951 3.18359 42.1797 3.10547 42.1797C3.01432 42.1797 2.89714 42.043 2.75391 41.7695C2.46745 41.2878 2.17448 40.9492 1.875 40.7539C5.5599 38.2279 8.32031 35.2852 10.1562 31.9258H7.71484L2.83203 32.0039C2.64974 32.0039 2.55859 31.9062 2.55859 31.7109V30.5195C2.55859 30.3372 2.64974 30.2461 2.83203 30.2461L7.71484 30.3242H10.7617V29.875C10.7617 28.0521 10.6771 26.7891 10.5078 26.0859C11.1589 26.112 11.8034 26.1771 12.4414 26.2812C12.7018 26.3203 12.832 26.4115 12.832 26.5547C12.832 26.6849 12.7669 26.8867 12.6367 27.1602C12.5326 27.4076 12.4805 28.3125 12.4805 29.875V30.3242H14.5898L19.4336 30.2461C19.6159 30.2461 19.707 30.3372 19.707 30.5195V31.7109C19.707 31.9062 19.6159 32.0039 19.4336 32.0039L14.5898 31.9258H13.0664C13.8997 33.1758 14.8242 34.2305 15.8398 35.0898C16.6341 35.7669 17.7539 36.5352 19.1992 37.3945C18.8607 37.6549 18.5938 37.974 18.3984 38.3516C18.2812 38.599 18.1771 38.7227 18.0859 38.7227C17.9948 38.7227 17.8451 38.6445 17.6367 38.4883C15.4622 36.9388 13.6914 35.0443 12.3242 32.8047ZM32.6367 25.2461V39.3672L32.7148 45.4805C32.7148 45.6758 32.6237 45.7734 32.4414 45.7734H30.9961C30.8138 45.7734 30.7227 45.6758 30.7227 45.4805L30.8008 39.3672V25.2461H24.1992C24.1992 30.5326 23.8672 34.4518 23.2031 37.0039C22.4349 39.9596 21.0091 42.6419 18.9258 45.0508C18.7174 45.2982 18.5677 45.4219 18.4766 45.4219C18.3984 45.4219 18.2552 45.3242 18.0469 45.1289C17.7604 44.8815 17.3698 44.6536 16.875 44.4453C19.2057 42.1146 20.7812 39.2891 21.6016 35.9688C22.1354 33.6641 22.4023 29.9401 22.4023 24.7969V19.7188C22.4023 17.6094 22.3112 15.8646 22.1289 14.4844C22.8971 14.6406 23.6393 14.8815 24.3555 15.207C27.168 14.5169 29.9414 13.4362 32.6758 11.9648C33.3008 11.6393 33.9388 11.1706 34.5898 10.5586C35.1237 10.9362 35.6315 11.418 36.1133 12.0039C36.2435 12.1862 36.3086 12.349 36.3086 12.4922C36.3086 12.6615 36.1458 12.7656 35.8203 12.8047C35.5599 12.8307 35.0846 12.9935 34.3945 13.293C30.9831 14.9206 27.5846 16.1576 24.1992 17.0039V23.5664H33.3984L38.0469 23.4883C38.2292 23.4883 38.3203 23.5794 38.3203 23.7617V25.0508C38.3203 25.2331 38.2292 25.3242 38.0469 25.3242L33.3984 25.2461H32.6367ZM12.8711 23.5273C13.7305 21.8086 14.401 20.194 14.8828 18.6836C15.0781 18.0716 15.1953 17.5117 15.2344 17.0039C15.9766 17.1732 16.5625 17.3359 16.9922 17.4922C17.2656 17.5833 17.4023 17.7266 17.4023 17.9219C17.4023 18.0391 17.3112 18.1888 17.1289 18.3711C16.8815 18.6185 16.6797 18.9245 16.5234 19.2891C15.9635 20.6562 15.293 22.069 14.5117 23.5273H15.1172L20.1172 23.4492C20.2995 23.4492 20.3906 23.5404 20.3906 23.7227V24.9336C20.3906 25.1159 20.2995 25.207 20.1172 25.207L15.1172 25.1289H7.55859L2.59766 25.207C2.41536 25.207 2.32422 25.1159 2.32422 24.9336V23.7227C2.32422 23.5404 2.41536 23.4492 2.59766 23.4492L7.55859 23.5273H12.8711ZM10.7617 14.1523V12.8828C10.7617 11.5938 10.6641 10.6042 10.4688 9.91406C11.2891 9.91406 11.9857 9.96615 12.5586 10.0703C12.8711 10.1224 13.0273 10.2201 13.0273 10.3633C13.0273 10.5195 12.9492 10.7539 12.793 11.0664C12.6628 11.3398 12.5977 11.9453 12.5977 12.8828V14.1523H14.707L19.4727 14.0742C19.6549 14.0742 19.7461 14.1654 19.7461 14.3477V15.5586C19.7461 15.7409 19.6549 15.832 19.4727 15.832L14.707 15.7539H8.20312L3.39844 15.832C3.20312 15.832 3.10547 15.7409 3.10547 15.5586V14.3477C3.10547 14.1654 3.20312 14.0742 3.39844 14.0742L8.20312 14.1523H10.7617ZM6.19141 17.9219C6.15234 17.8438 6.13281 17.7852 6.13281 17.7461C6.13281 17.668 6.28906 17.5508 6.60156 17.3945L7.14844 17.1602C7.26562 17.1211 7.35677 17.1016 7.42188 17.1016C7.51302 17.1016 7.59766 17.1667 7.67578 17.2969C8.36589 18.4297 8.97786 19.8229 9.51172 21.4766C9.53776 21.5547 9.55078 21.6133 9.55078 21.6523C9.55078 21.7565 9.42057 21.8607 9.16016 21.9648L8.55469 22.2383C8.30729 22.3294 8.15104 22.375 8.08594 22.375C7.99479 22.375 7.92318 22.2904 7.87109 22.1211C7.36328 20.3503 6.80339 18.9505 6.19141 17.9219ZM67.2102 24.9531V40.2656L67.2883 45.3828C67.2883 45.5781 67.1971 45.6758 67.0148 45.6758H65.6086C65.4263 45.6758 65.3352 45.5781 65.3352 45.3828L65.4133 40.2656V24.9531H57.0539V25.4805C57.0539 29.7513 56.6112 33.4036 55.7258 36.4375C54.8794 39.6276 53.3885 42.4661 51.2531 44.9531C51.0578 45.2005 50.9081 45.3242 50.8039 45.3242C50.6997 45.3242 50.5565 45.2135 50.3742 44.9922C50.0617 44.6406 49.6776 44.3737 49.2219 44.1914C51.5005 41.9388 53.1411 39.0026 54.1437 35.3828C54.8859 32.4661 55.257 29.1654 55.257 25.4805V18.7617C55.257 16.5482 55.1789 14.9596 55.0227 13.9961C55.843 14.2044 56.5721 14.4583 57.2102 14.7578C61.2727 14.0026 64.899 12.8958 68.0891 11.4375C68.9875 11.0339 69.6646 10.6172 70.1203 10.1875C70.7062 10.6432 71.175 11.0859 71.5266 11.5156C71.6828 11.724 71.7609 11.8867 71.7609 12.0039C71.7609 12.1732 71.5852 12.2773 71.2336 12.3164C71.0122 12.3424 70.563 12.4987 69.8859 12.7852C65.6802 14.4648 61.4029 15.6823 57.0539 16.4375V23.2734H69.1633L74.1242 23.1953C74.3065 23.1953 74.3977 23.2865 74.3977 23.4688V24.7969C74.3977 24.9531 74.3065 25.0312 74.1242 25.0312L69.1633 24.9531H67.2102ZM45.4523 31.125C44.9836 31.2943 44.3716 31.5091 43.6164 31.7695C42.7961 32.056 42.2753 32.2383 42.0539 32.3164C41.4289 32.5247 40.9211 32.7917 40.5305 33.1172C40.2831 33.2995 40.1073 33.3906 40.0031 33.3906C39.8469 33.3906 39.7167 33.2865 39.6125 33.0781C39.3781 32.4922 39.1503 31.8542 38.9289 31.1641C40.0096 30.9818 41.1815 30.6888 42.4445 30.2852C43.8638 29.8294 44.8664 29.4974 45.4523 29.2891V20.1289H44.007L40.0812 20.207C39.899 20.207 39.8078 20.1094 39.8078 19.9141V18.6445C39.8078 18.4492 39.899 18.3516 40.0812 18.3516L44.007 18.4492H45.4523V14.7969C45.4523 12.6094 45.3547 11.0794 45.1594 10.207C45.8625 10.2331 46.5591 10.2982 47.2492 10.4023C47.5487 10.4414 47.6984 10.5456 47.6984 10.7148C47.6984 10.819 47.6138 11.0599 47.4445 11.4375C47.3143 11.8021 47.2492 12.8958 47.2492 14.7188V18.4492H48.05L51.9758 18.3516C52.1581 18.3516 52.2492 18.4492 52.2492 18.6445V19.9141C52.2492 20.1094 52.1581 20.207 51.9758 20.207L48.05 20.1289H47.2492V28.6055C48.7727 28.0195 50.6542 27.2188 52.8937 26.2031C52.8547 26.5026 52.8352 26.7891 52.8352 27.0625C52.8352 27.2188 52.8352 27.3555 52.8352 27.4727C52.8352 27.4987 52.8417 27.5573 52.8547 27.6484C52.8547 27.6875 52.8547 27.7266 52.8547 27.7656C52.8547 28.026 52.6659 28.2344 52.2883 28.3906C51.2336 28.8724 49.5539 29.569 47.2492 30.4805V36.3594L47.2883 41.7695C47.2883 42.694 47.2102 43.3646 47.0539 43.7812C46.9237 44.1328 46.6958 44.4323 46.3703 44.6797C45.7323 45.1094 44.5865 45.3242 42.9328 45.3242C42.8026 45.3242 42.5617 45.3242 42.2102 45.3242C41.8716 45.2982 41.6633 45.2526 41.5852 45.1875C41.5201 45.1224 41.4484 44.9531 41.3703 44.6797C41.2661 44.237 41.0513 43.7812 40.7258 43.3125C41.5852 43.4297 42.6008 43.4883 43.7727 43.4883C44.4237 43.4883 44.8729 43.306 45.1203 42.9414C45.3417 42.6289 45.4523 42.1146 45.4523 41.3984V31.125Z" fill="#4E7BEE"/>
<path d="M119.617 72.1094C119.18 74.4375 118.625 76.1094 117.953 77.125C117.281 78.1094 116.43 78.6016 115.398 78.6016C112.586 78.6016 110.297 74.9844 108.531 67.75C107.844 65.0469 107.219 61.4766 106.656 57.0391L98.5469 57.5312V73.4453C101.594 72.5078 104.477 71.3594 107.195 70C107.086 70.5312 107.031 71.125 107.031 71.7812C107.031 72.2812 106.992 72.5938 106.914 72.7188C106.82 72.8438 106.562 72.9922 106.141 73.1641C103.391 74.4766 99.8203 75.8359 95.4297 77.2422C94.3984 77.5859 93.7422 77.8594 93.4609 78.0625C93.2422 78.2188 93.0469 78.2969 92.875 78.2969C92.6875 78.2969 92.5312 78.1562 92.4062 77.875C92.125 77.25 91.8203 76.3203 91.4922 75.0859C92.6953 74.9453 94.0547 74.6875 95.5703 74.3125H95.7109V46.5859C95.7109 43.4609 95.6016 41.2812 95.3828 40.0469C96.4297 40.2188 97.4844 40.5234 98.5469 40.9609C103.859 40.4453 108.305 39.5156 111.883 38.1719C112.992 37.75 113.812 37.3203 114.344 36.8828C115.109 37.4766 115.812 38.1172 116.453 38.8047C116.609 38.9609 116.688 39.1484 116.688 39.3672C116.688 39.6172 116.477 39.7656 116.055 39.8125C115.93 39.8281 115.328 40 114.25 40.3281C112.25 40.9688 110.266 41.5 108.297 41.9219C108.484 46.6562 108.773 50.7812 109.164 54.2969L111.648 54.1562C114.43 54 116.594 53.8438 118.141 53.6875C118.188 53.6719 118.234 53.6641 118.281 53.6641C118.438 53.6641 118.516 53.7969 118.516 54.0625L118.562 56.0781C118.562 56.375 118.453 56.5234 118.234 56.5234C116.891 56.5234 114.711 56.6016 111.695 56.7578L109.445 56.8984C109.867 60.3828 110.375 63.3438 110.969 65.7812C111.703 68.8906 112.508 71.3438 113.383 73.1406C114.102 74.6094 114.742 75.3438 115.305 75.3438C115.914 75.3438 116.391 74.6719 116.734 73.3281C116.938 72.5625 117.18 71.1484 117.461 69.0859C117.945 69.6953 118.508 70.2109 119.148 70.6328C119.539 70.8828 119.734 71.1406 119.734 71.4062C119.734 71.5312 119.695 71.7656 119.617 72.1094ZM106.375 54.4375C105.938 50.3594 105.633 46.375 105.461 42.4844C103.133 42.9062 100.828 43.25 98.5469 43.5156V54.8828L106.375 54.4375ZM93.8828 60.4375C93.8984 60.5469 93.9062 60.6328 93.9062 60.6953C93.9062 60.8203 93.75 60.9453 93.4375 61.0703L92.2891 61.5625C92.0078 61.6562 91.8281 61.7031 91.75 61.7031C91.625 61.7031 91.5312 61.5859 91.4688 61.3516C91.2812 60.6172 91.0156 59.7578 90.6719 58.7734L86.1953 59.1953V72.0156L86.2891 79.0234C86.2891 79.2422 86.1641 79.3516 85.9141 79.3516H83.7344C83.4844 79.3516 83.3594 79.2422 83.3594 79.0234L83.4531 72.0156V59.4297C82.4688 59.5234 80.9141 59.6406 78.7891 59.7812C77.8672 59.8594 77.2656 59.9844 76.9844 60.1562C76.7188 60.2812 76.5391 60.3438 76.4453 60.3438C76.2578 60.3438 76.1172 60.1328 76.0234 59.7109C75.7891 58.6953 75.625 57.8203 75.5312 57.0859C76.5469 57.1797 77.5391 57.2266 78.5078 57.2266H79.0469C80.1875 55.7422 81.3984 54.0625 82.6797 52.1875C80.2891 49.3281 77.9766 46.8828 75.7422 44.8516C75.6016 44.7422 75.5312 44.6328 75.5312 44.5234C75.5312 44.4141 75.625 44.2344 75.8125 43.9844L76.5391 42.9766C76.7266 42.7109 76.875 42.5781 76.9844 42.5781C77.0625 42.5781 77.1719 42.6484 77.3125 42.7891L79.2344 44.6172C80.3281 42.9141 81.3516 41.1016 82.3047 39.1797C83.0703 37.6172 83.5 36.5312 83.5938 35.9219C84.6094 36.3125 85.4922 36.6953 86.2422 37.0703C86.5703 37.2578 86.7344 37.4688 86.7344 37.7031C86.7344 37.8438 86.6094 38.0156 86.3594 38.2188C86.0312 38.4844 85.7578 38.8203 85.5391 39.2266C84.1328 41.6328 82.6094 44 80.9688 46.3281C82.1562 47.5781 83.2266 48.7656 84.1797 49.8906C84.8828 48.8438 85.9219 47.1484 87.2969 44.8047C88.2812 43.1172 88.9062 41.7578 89.1719 40.7266C90.125 41.1016 90.9844 41.5469 91.75 42.0625C92.0781 42.25 92.2422 42.4453 92.2422 42.6484C92.2422 42.8516 92.0781 43.0547 91.75 43.2578C91.4531 43.4766 90.9141 44.1797 90.1328 45.3672C87.0391 50.2422 84.3516 54.1641 82.0703 57.1328C85.4766 56.9297 88.0703 56.7422 89.8516 56.5703C89.4609 55.6641 88.9297 54.5703 88.2578 53.2891C88.1797 53.1641 88.1406 53.0703 88.1406 53.0078C88.1406 52.8828 88.3281 52.7422 88.7031 52.5859L89.5469 52.1875C89.7969 52.0781 89.9609 52.0234 90.0391 52.0234C90.1328 52.0234 90.2266 52.1094 90.3203 52.2812C91.7578 54.8906 92.9453 57.6094 93.8828 60.4375ZM80.8281 63.8125C80.8281 63.9375 80.7656 64.125 80.6406 64.375C80.5469 64.5469 80.4453 65.0156 80.3359 65.7812C79.8984 69.5312 79.2266 72.6797 78.3203 75.2266C78.1797 75.7109 78.0078 75.9531 77.8047 75.9531C77.6641 75.9531 77.4375 75.8281 77.125 75.5781C76.6719 75.2188 76.1641 74.9609 75.6016 74.8047C76.6953 71.9766 77.4297 68.8047 77.8047 65.2891C77.8516 64.7891 77.875 64.3438 77.875 63.9531C77.875 63.6875 77.8672 63.3672 77.8516 62.9922C78.7422 63.0859 79.5234 63.2109 80.1953 63.3672C80.6172 63.4609 80.8281 63.6094 80.8281 63.8125ZM92.6406 70.5859C92.6406 70.6328 92.6406 70.6797 92.6406 70.7266C92.6406 70.9297 92.4297 71.1016 92.0078 71.2422L91 71.5938C90.7344 71.6875 90.5469 71.7344 90.4375 71.7344C90.2969 71.7344 90.2109 71.6094 90.1797 71.3594C89.8203 68.25 89.3047 65.75 88.6328 63.8594C88.6016 63.7656 88.5859 63.6875 88.5859 63.625C88.5859 63.5 88.7969 63.3672 89.2188 63.2266L90.1797 62.9453C90.3828 62.8828 90.5234 62.8516 90.6016 62.8516C90.7266 62.8516 90.8281 62.9609 90.9062 63.1797C91.7031 65.6328 92.2812 68.1016 92.6406 70.5859Z" fill="#4E7BEE"/>
</svg>
